<mxfile host="app.diagrams.net" modified="2024-02-12T14:59:54.566Z" agent="Mozilla/5.0 (Windows NT 10.0; Win64; x64) AppleWebKit/537.36 (KHTML, like Gecko) Chrome/121.0.0.0 Safari/537.36" etag="t0ua9M1aA3bpk3IPjhnJ" version="23.1.2" type="device">
  <diagram name="Page-1" id="CnV2QMX4YSxDepwrnJo2">
    <mxGraphModel dx="2049" dy="1103" grid="0" gridSize="10" guides="1" tooltips="1" connect="1" arrows="1" fold="1" page="1" pageScale="1" pageWidth="827" pageHeight="1169" math="0" shadow="0">
      <root>
        <mxCell id="0" />
        <mxCell id="1" parent="0" />
        <mxCell id="UyIN8Gw33pNHuzx0u8Zp-3" value="" style="rounded=0;whiteSpace=wrap;html=1;fillColor=#dae8fc;strokeColor=none;" vertex="1" parent="1">
          <mxGeometry x="42" y="60" width="80" height="60" as="geometry" />
        </mxCell>
        <mxCell id="UyIN8Gw33pNHuzx0u8Zp-4" value="" style="rounded=0;whiteSpace=wrap;html=1;fillColor=#dae8fc;strokeColor=none;" vertex="1" parent="1">
          <mxGeometry x="202" y="60" width="80" height="60" as="geometry" />
        </mxCell>
        <mxCell id="UyIN8Gw33pNHuzx0u8Zp-5" value="Start unit" style="text;html=1;align=center;verticalAlign=middle;whiteSpace=wrap;rounded=0;fontSize=14;fontColor=#008200;" vertex="1" parent="1">
          <mxGeometry x="12" y="125" width="60" height="30" as="geometry" />
        </mxCell>
        <mxCell id="UyIN8Gw33pNHuzx0u8Zp-6" value="End unit" style="text;html=1;strokeColor=none;fillColor=none;align=center;verticalAlign=middle;whiteSpace=wrap;rounded=0;fontSize=14;fontColor=#9C0000;" vertex="1" parent="1">
          <mxGeometry x="92" y="125" width="60" height="30" as="geometry" />
        </mxCell>
        <mxCell id="UyIN8Gw33pNHuzx0u8Zp-7" value="Time" style="text;html=1;strokeColor=none;fillColor=none;align=center;verticalAlign=middle;whiteSpace=wrap;rounded=0;fontSize=14;" vertex="1" parent="1">
          <mxGeometry x="730" y="105" width="60" height="30" as="geometry" />
        </mxCell>
        <mxCell id="UyIN8Gw33pNHuzx0u8Zp-8" value="LIGHT ON" style="text;html=1;strokeColor=none;fillColor=none;align=center;verticalAlign=middle;whiteSpace=wrap;rounded=0;fontSize=14;" vertex="1" parent="1">
          <mxGeometry x="52" y="75" width="60" height="30" as="geometry" />
        </mxCell>
        <mxCell id="UyIN8Gw33pNHuzx0u8Zp-9" value="LIGHT OFF" style="text;html=1;strokeColor=none;fillColor=none;align=center;verticalAlign=middle;whiteSpace=wrap;rounded=0;fontSize=14;" vertex="1" parent="1">
          <mxGeometry x="132" y="75" width="60" height="30" as="geometry" />
        </mxCell>
        <mxCell id="UyIN8Gw33pNHuzx0u8Zp-10" value="LIGHT ON" style="text;html=1;strokeColor=none;fillColor=none;align=center;verticalAlign=middle;whiteSpace=wrap;rounded=0;fontSize=14;" vertex="1" parent="1">
          <mxGeometry x="212" y="75" width="60" height="30" as="geometry" />
        </mxCell>
        <mxCell id="UyIN8Gw33pNHuzx0u8Zp-14" value="" style="rounded=0;whiteSpace=wrap;html=1;fillColor=#dae8fc;strokeColor=none;" vertex="1" parent="1">
          <mxGeometry x="362" y="60" width="80" height="60" as="geometry" />
        </mxCell>
        <mxCell id="UyIN8Gw33pNHuzx0u8Zp-15" value="LIGHT OFF" style="text;html=1;strokeColor=none;fillColor=none;align=center;verticalAlign=middle;whiteSpace=wrap;rounded=0;fontSize=14;" vertex="1" parent="1">
          <mxGeometry x="292" y="75" width="60" height="30" as="geometry" />
        </mxCell>
        <mxCell id="UyIN8Gw33pNHuzx0u8Zp-16" value="LIGHT ON" style="text;html=1;strokeColor=none;fillColor=none;align=center;verticalAlign=middle;whiteSpace=wrap;rounded=0;fontSize=14;" vertex="1" parent="1">
          <mxGeometry x="372" y="75" width="60" height="30" as="geometry" />
        </mxCell>
        <mxCell id="UyIN8Gw33pNHuzx0u8Zp-17" value="LIGHT OFF" style="text;html=1;strokeColor=none;fillColor=none;align=center;verticalAlign=middle;whiteSpace=wrap;rounded=0;fontSize=14;" vertex="1" parent="1">
          <mxGeometry x="452" y="75" width="60" height="30" as="geometry" />
        </mxCell>
        <mxCell id="UyIN8Gw33pNHuzx0u8Zp-18" value="STABLE MODE" style="text;html=1;strokeColor=none;fillColor=none;align=center;verticalAlign=middle;whiteSpace=wrap;rounded=0;fontSize=18;fontStyle=1" vertex="1" parent="1">
          <mxGeometry x="634.62" y="20" width="180" height="30" as="geometry" />
        </mxCell>
        <mxCell id="UyIN8Gw33pNHuzx0u8Zp-19" value="" style="endArrow=classic;startArrow=classic;html=1;rounded=0;" edge="1" parent="1">
          <mxGeometry width="50" height="50" relative="1" as="geometry">
            <mxPoint x="42" y="40" as="sourcePoint" />
            <mxPoint x="202" y="40" as="targetPoint" />
          </mxGeometry>
        </mxCell>
        <mxCell id="UyIN8Gw33pNHuzx0u8Zp-20" value="Period" style="text;html=1;strokeColor=none;fillColor=none;align=center;verticalAlign=middle;whiteSpace=wrap;rounded=0;fontSize=14;" vertex="1" parent="1">
          <mxGeometry x="92" y="10" width="60" height="30" as="geometry" />
        </mxCell>
        <mxCell id="UyIN8Gw33pNHuzx0u8Zp-23" value="Start unit" style="text;html=1;align=center;verticalAlign=middle;whiteSpace=wrap;rounded=0;fontSize=14;fontColor=#008200;" vertex="1" parent="1">
          <mxGeometry x="20" y="300" width="60" height="30" as="geometry" />
        </mxCell>
        <mxCell id="UyIN8Gw33pNHuzx0u8Zp-24" value="End unit" style="text;html=1;strokeColor=none;fillColor=none;align=center;verticalAlign=middle;whiteSpace=wrap;rounded=0;fontSize=14;fontColor=#9C0000;" vertex="1" parent="1">
          <mxGeometry x="92" y="300" width="60" height="30" as="geometry" />
        </mxCell>
        <mxCell id="UyIN8Gw33pNHuzx0u8Zp-27" value="LIGHT OFF" style="text;html=1;strokeColor=none;fillColor=none;align=center;verticalAlign=middle;whiteSpace=wrap;rounded=0;fontSize=14;" vertex="1" parent="1">
          <mxGeometry x="132" y="245" width="60" height="30" as="geometry" />
        </mxCell>
        <mxCell id="UyIN8Gw33pNHuzx0u8Zp-30" value="LIGHT OFF" style="text;html=1;strokeColor=none;fillColor=none;align=center;verticalAlign=middle;whiteSpace=wrap;rounded=0;fontSize=14;" vertex="1" parent="1">
          <mxGeometry x="280" y="245" width="60" height="30" as="geometry" />
        </mxCell>
        <mxCell id="UyIN8Gw33pNHuzx0u8Zp-34" value="RISING MODE" style="text;html=1;strokeColor=none;fillColor=none;align=center;verticalAlign=middle;whiteSpace=wrap;rounded=0;fontSize=18;fontStyle=1" vertex="1" parent="1">
          <mxGeometry x="223.7" y="163" width="160" height="30" as="geometry" />
        </mxCell>
        <mxCell id="UyIN8Gw33pNHuzx0u8Zp-35" value="" style="endArrow=classic;startArrow=classic;html=1;rounded=0;" edge="1" parent="1">
          <mxGeometry width="50" height="50" relative="1" as="geometry">
            <mxPoint x="40" y="211" as="sourcePoint" />
            <mxPoint x="200" y="210" as="targetPoint" />
          </mxGeometry>
        </mxCell>
        <mxCell id="UyIN8Gw33pNHuzx0u8Zp-36" value="Period" style="text;html=1;strokeColor=none;fillColor=none;align=center;verticalAlign=middle;whiteSpace=wrap;rounded=0;fontSize=14;" vertex="1" parent="1">
          <mxGeometry x="80" y="180" width="60" height="30" as="geometry" />
        </mxCell>
        <mxCell id="UyIN8Gw33pNHuzx0u8Zp-37" value="" style="rounded=0;whiteSpace=wrap;html=1;fillColor=#dae8fc;strokeColor=none;" vertex="1" parent="1">
          <mxGeometry x="522" y="60" width="80" height="60" as="geometry" />
        </mxCell>
        <mxCell id="UyIN8Gw33pNHuzx0u8Zp-38" value="LIGHT ON" style="text;html=1;strokeColor=none;fillColor=none;align=center;verticalAlign=middle;whiteSpace=wrap;rounded=0;fontSize=14;" vertex="1" parent="1">
          <mxGeometry x="532" y="75" width="60" height="30" as="geometry" />
        </mxCell>
        <mxCell id="UyIN8Gw33pNHuzx0u8Zp-39" value="LIGHT OFF" style="text;html=1;strokeColor=none;fillColor=none;align=center;verticalAlign=middle;whiteSpace=wrap;rounded=0;fontSize=14;" vertex="1" parent="1">
          <mxGeometry x="612" y="75" width="60" height="30" as="geometry" />
        </mxCell>
        <mxCell id="UyIN8Gw33pNHuzx0u8Zp-1" value="" style="shape=flexArrow;endArrow=classic;html=1;rounded=0;fillColor=default;" edge="1" parent="1">
          <mxGeometry width="50" height="50" relative="1" as="geometry">
            <mxPoint x="42" y="120" as="sourcePoint" />
            <mxPoint x="720" y="120" as="targetPoint" />
          </mxGeometry>
        </mxCell>
        <mxCell id="UyIN8Gw33pNHuzx0u8Zp-45" value="Start unit" style="text;html=1;align=center;verticalAlign=middle;whiteSpace=wrap;rounded=0;fontSize=14;fontColor=#008200;" vertex="1" parent="1">
          <mxGeometry x="490" y="300" width="60" height="30" as="geometry" />
        </mxCell>
        <mxCell id="UyIN8Gw33pNHuzx0u8Zp-46" value="End unit" style="text;html=1;strokeColor=none;fillColor=none;align=center;verticalAlign=middle;whiteSpace=wrap;rounded=0;fontSize=14;fontColor=#9C0000;" vertex="1" parent="1">
          <mxGeometry x="570" y="300" width="60" height="30" as="geometry" />
        </mxCell>
        <mxCell id="UyIN8Gw33pNHuzx0u8Zp-47" value="Time" style="text;html=1;strokeColor=none;fillColor=none;align=center;verticalAlign=middle;whiteSpace=wrap;rounded=0;fontSize=14;" vertex="1" parent="1">
          <mxGeometry x="744" y="275" width="60" height="30" as="geometry" />
        </mxCell>
        <mxCell id="UyIN8Gw33pNHuzx0u8Zp-51" value="RISING MODE INV" style="text;html=1;strokeColor=none;fillColor=none;align=center;verticalAlign=middle;whiteSpace=wrap;rounded=0;fontSize=18;fontStyle=1" vertex="1" parent="1">
          <mxGeometry x="634" y="163" width="170" height="30" as="geometry" />
        </mxCell>
        <mxCell id="UyIN8Gw33pNHuzx0u8Zp-52" value="" style="endArrow=classic;startArrow=classic;html=1;rounded=0;" edge="1" parent="1">
          <mxGeometry width="50" height="50" relative="1" as="geometry">
            <mxPoint x="440" y="210" as="sourcePoint" />
            <mxPoint x="740" y="210" as="targetPoint" />
          </mxGeometry>
        </mxCell>
        <mxCell id="UyIN8Gw33pNHuzx0u8Zp-53" value="Period" style="text;html=1;strokeColor=none;fillColor=none;align=center;verticalAlign=middle;whiteSpace=wrap;rounded=0;fontSize=14;" vertex="1" parent="1">
          <mxGeometry x="532" y="180" width="60" height="30" as="geometry" />
        </mxCell>
        <mxCell id="UyIN8Gw33pNHuzx0u8Zp-61" value="" style="verticalLabelPosition=bottom;verticalAlign=top;html=1;shape=mxgraph.basic.orthogonal_triangle;flipH=1;fillColor=#dae8fc;strokeColor=none;" vertex="1" parent="1">
          <mxGeometry x="40" y="230" width="80" height="60" as="geometry" />
        </mxCell>
        <mxCell id="UyIN8Gw33pNHuzx0u8Zp-62" value="" style="verticalLabelPosition=bottom;verticalAlign=top;html=1;shape=mxgraph.basic.orthogonal_triangle;flipH=1;fillColor=#dae8fc;strokeColor=none;" vertex="1" parent="1">
          <mxGeometry x="200" y="230" width="80" height="61.25" as="geometry" />
        </mxCell>
        <mxCell id="UyIN8Gw33pNHuzx0u8Zp-33" value="" style="shape=flexArrow;endArrow=classic;html=1;rounded=0;fillColor=default;" edge="1" parent="1">
          <mxGeometry width="50" height="50" relative="1" as="geometry">
            <mxPoint x="40" y="290" as="sourcePoint" />
            <mxPoint x="362" y="290" as="targetPoint" />
          </mxGeometry>
        </mxCell>
        <mxCell id="UyIN8Gw33pNHuzx0u8Zp-64" value="" style="rounded=0;whiteSpace=wrap;html=1;fillColor=#dae8fc;strokeColor=none;" vertex="1" parent="1">
          <mxGeometry x="440" y="231.25" width="80" height="60" as="geometry" />
        </mxCell>
        <mxCell id="UyIN8Gw33pNHuzx0u8Zp-65" value="" style="verticalLabelPosition=bottom;verticalAlign=top;html=1;shape=mxgraph.basic.orthogonal_triangle;flipH=1;fillColor=#dae8fc;strokeColor=none;" vertex="1" parent="1">
          <mxGeometry x="510" y="231.25" width="90" height="58.75" as="geometry" />
        </mxCell>
        <mxCell id="UyIN8Gw33pNHuzx0u8Zp-66" value="" style="rounded=0;whiteSpace=wrap;html=1;fillColor=#dae8fc;strokeColor=none;" vertex="1" parent="1">
          <mxGeometry x="600" y="231.25" width="140" height="60" as="geometry" />
        </mxCell>
        <mxCell id="UyIN8Gw33pNHuzx0u8Zp-50" value="" style="shape=flexArrow;endArrow=classic;html=1;rounded=0;fillColor=default;" edge="1" parent="1">
          <mxGeometry width="50" height="50" relative="1" as="geometry">
            <mxPoint x="440" y="290" as="sourcePoint" />
            <mxPoint x="760" y="290" as="targetPoint" />
          </mxGeometry>
        </mxCell>
        <mxCell id="UyIN8Gw33pNHuzx0u8Zp-67" value="Start unit" style="text;html=1;align=center;verticalAlign=middle;whiteSpace=wrap;rounded=0;fontSize=14;fontColor=#008200;" vertex="1" parent="1">
          <mxGeometry x="22" y="470" width="60" height="30" as="geometry" />
        </mxCell>
        <mxCell id="UyIN8Gw33pNHuzx0u8Zp-68" value="End unit" style="text;html=1;strokeColor=none;fillColor=none;align=center;verticalAlign=middle;whiteSpace=wrap;rounded=0;fontSize=14;fontColor=#9C0000;" vertex="1" parent="1">
          <mxGeometry x="102" y="470" width="60" height="30" as="geometry" />
        </mxCell>
        <mxCell id="UyIN8Gw33pNHuzx0u8Zp-69" value="LIGHT OFF" style="text;html=1;strokeColor=none;fillColor=none;align=center;verticalAlign=middle;whiteSpace=wrap;rounded=0;fontSize=14;" vertex="1" parent="1">
          <mxGeometry x="142" y="415" width="60" height="30" as="geometry" />
        </mxCell>
        <mxCell id="UyIN8Gw33pNHuzx0u8Zp-70" value="LIGHT OFF" style="text;html=1;strokeColor=none;fillColor=none;align=center;verticalAlign=middle;whiteSpace=wrap;rounded=0;fontSize=14;" vertex="1" parent="1">
          <mxGeometry x="290" y="415" width="60" height="30" as="geometry" />
        </mxCell>
        <mxCell id="UyIN8Gw33pNHuzx0u8Zp-71" value="FALLING MODE" style="text;html=1;strokeColor=none;fillColor=none;align=center;verticalAlign=middle;whiteSpace=wrap;rounded=0;fontSize=18;fontStyle=1" vertex="1" parent="1">
          <mxGeometry x="226" y="340" width="160" height="30" as="geometry" />
        </mxCell>
        <mxCell id="UyIN8Gw33pNHuzx0u8Zp-72" value="" style="endArrow=classic;startArrow=classic;html=1;rounded=0;" edge="1" parent="1">
          <mxGeometry width="50" height="50" relative="1" as="geometry">
            <mxPoint x="40" y="380" as="sourcePoint" />
            <mxPoint x="208" y="380" as="targetPoint" />
          </mxGeometry>
        </mxCell>
        <mxCell id="UyIN8Gw33pNHuzx0u8Zp-73" value="Period" style="text;html=1;strokeColor=none;fillColor=none;align=center;verticalAlign=middle;whiteSpace=wrap;rounded=0;fontSize=14;" vertex="1" parent="1">
          <mxGeometry x="90" y="350" width="60" height="30" as="geometry" />
        </mxCell>
        <mxCell id="UyIN8Gw33pNHuzx0u8Zp-74" value="Start unit" style="text;html=1;align=center;verticalAlign=middle;whiteSpace=wrap;rounded=0;fontSize=14;fontColor=#008200;" vertex="1" parent="1">
          <mxGeometry x="490" y="470" width="60" height="30" as="geometry" />
        </mxCell>
        <mxCell id="UyIN8Gw33pNHuzx0u8Zp-75" value="End unit" style="text;html=1;strokeColor=none;fillColor=none;align=center;verticalAlign=middle;whiteSpace=wrap;rounded=0;fontSize=14;fontColor=#9C0000;" vertex="1" parent="1">
          <mxGeometry x="570" y="470" width="60" height="30" as="geometry" />
        </mxCell>
        <mxCell id="UyIN8Gw33pNHuzx0u8Zp-76" value="Time" style="text;html=1;strokeColor=none;fillColor=none;align=center;verticalAlign=middle;whiteSpace=wrap;rounded=0;fontSize=14;" vertex="1" parent="1">
          <mxGeometry x="744" y="445" width="60" height="30" as="geometry" />
        </mxCell>
        <mxCell id="UyIN8Gw33pNHuzx0u8Zp-77" value="FALLING MODE INV" style="text;html=1;strokeColor=none;fillColor=none;align=center;verticalAlign=middle;whiteSpace=wrap;rounded=0;fontSize=18;fontStyle=1" vertex="1" parent="1">
          <mxGeometry x="635" y="340" width="187" height="30" as="geometry" />
        </mxCell>
        <mxCell id="UyIN8Gw33pNHuzx0u8Zp-78" value="" style="endArrow=classic;startArrow=classic;html=1;rounded=0;" edge="1" parent="1">
          <mxGeometry width="50" height="50" relative="1" as="geometry">
            <mxPoint x="440" y="380" as="sourcePoint" />
            <mxPoint x="740" y="380" as="targetPoint" />
          </mxGeometry>
        </mxCell>
        <mxCell id="UyIN8Gw33pNHuzx0u8Zp-79" value="Period" style="text;html=1;strokeColor=none;fillColor=none;align=center;verticalAlign=middle;whiteSpace=wrap;rounded=0;fontSize=14;" vertex="1" parent="1">
          <mxGeometry x="532" y="350" width="60" height="30" as="geometry" />
        </mxCell>
        <mxCell id="UyIN8Gw33pNHuzx0u8Zp-80" value="" style="verticalLabelPosition=bottom;verticalAlign=top;html=1;shape=mxgraph.basic.orthogonal_triangle;flipH=0;fillColor=#dae8fc;strokeColor=none;" vertex="1" parent="1">
          <mxGeometry x="48" y="400" width="80" height="60" as="geometry" />
        </mxCell>
        <mxCell id="UyIN8Gw33pNHuzx0u8Zp-81" value="" style="verticalLabelPosition=bottom;verticalAlign=top;html=1;shape=mxgraph.basic.orthogonal_triangle;flipH=0;fillColor=#dae8fc;strokeColor=none;" vertex="1" parent="1">
          <mxGeometry x="208" y="400.63" width="80" height="61.25" as="geometry" />
        </mxCell>
        <mxCell id="UyIN8Gw33pNHuzx0u8Zp-82" value="" style="shape=flexArrow;endArrow=classic;html=1;rounded=0;fillColor=default;" edge="1" parent="1">
          <mxGeometry width="50" height="50" relative="1" as="geometry">
            <mxPoint x="40" y="460" as="sourcePoint" />
            <mxPoint x="360" y="460" as="targetPoint" />
          </mxGeometry>
        </mxCell>
        <mxCell id="UyIN8Gw33pNHuzx0u8Zp-83" value="" style="rounded=0;whiteSpace=wrap;html=1;fillColor=#dae8fc;strokeColor=none;" vertex="1" parent="1">
          <mxGeometry x="440" y="401.25" width="80" height="60" as="geometry" />
        </mxCell>
        <mxCell id="UyIN8Gw33pNHuzx0u8Zp-84" value="" style="verticalLabelPosition=bottom;verticalAlign=top;html=1;shape=mxgraph.basic.orthogonal_triangle;flipH=0;fillColor=#dae8fc;strokeColor=none;" vertex="1" parent="1">
          <mxGeometry x="520" y="401.25" width="90" height="58.75" as="geometry" />
        </mxCell>
        <mxCell id="UyIN8Gw33pNHuzx0u8Zp-85" value="" style="rounded=0;whiteSpace=wrap;html=1;fillColor=#dae8fc;strokeColor=none;" vertex="1" parent="1">
          <mxGeometry x="600" y="401.25" width="140" height="60" as="geometry" />
        </mxCell>
        <mxCell id="UyIN8Gw33pNHuzx0u8Zp-86" value="" style="shape=flexArrow;endArrow=classic;html=1;rounded=0;fillColor=default;" edge="1" parent="1">
          <mxGeometry width="50" height="50" relative="1" as="geometry">
            <mxPoint x="440" y="460" as="sourcePoint" />
            <mxPoint x="760" y="460" as="targetPoint" />
          </mxGeometry>
        </mxCell>
        <mxCell id="UyIN8Gw33pNHuzx0u8Zp-87" value="Start unit" style="text;html=1;align=center;verticalAlign=middle;whiteSpace=wrap;rounded=0;fontSize=14;fontColor=#008200;" vertex="1" parent="1">
          <mxGeometry x="42" y="644" width="60" height="30" as="geometry" />
        </mxCell>
        <mxCell id="UyIN8Gw33pNHuzx0u8Zp-88" value="End unit" style="text;html=1;strokeColor=none;fillColor=none;align=center;verticalAlign=middle;whiteSpace=wrap;rounded=0;fontSize=14;fontColor=#9C0000;" vertex="1" parent="1">
          <mxGeometry x="122" y="644" width="60" height="30" as="geometry" />
        </mxCell>
        <mxCell id="UyIN8Gw33pNHuzx0u8Zp-90" value="LIGHT OFF" style="text;html=1;strokeColor=none;fillColor=none;align=center;verticalAlign=middle;whiteSpace=wrap;rounded=0;fontSize=14;" vertex="1" parent="1">
          <mxGeometry x="34" y="587.36" width="60" height="30" as="geometry" />
        </mxCell>
        <mxCell id="UyIN8Gw33pNHuzx0u8Zp-91" value="RISING/FALLING MODE" style="text;html=1;strokeColor=none;fillColor=none;align=center;verticalAlign=middle;whiteSpace=wrap;rounded=0;fontSize=18;fontStyle=1" vertex="1" parent="1">
          <mxGeometry x="230" y="524" width="160" height="30" as="geometry" />
        </mxCell>
        <mxCell id="UyIN8Gw33pNHuzx0u8Zp-92" value="" style="endArrow=classic;startArrow=classic;html=1;rounded=0;" edge="1" parent="1">
          <mxGeometry width="50" height="50" relative="1" as="geometry">
            <mxPoint x="40" y="554" as="sourcePoint" />
            <mxPoint x="190" y="554" as="targetPoint" />
          </mxGeometry>
        </mxCell>
        <mxCell id="UyIN8Gw33pNHuzx0u8Zp-93" value="Period" style="text;html=1;strokeColor=none;fillColor=none;align=center;verticalAlign=middle;whiteSpace=wrap;rounded=0;fontSize=14;" vertex="1" parent="1">
          <mxGeometry x="80" y="524" width="60" height="30" as="geometry" />
        </mxCell>
        <mxCell id="UyIN8Gw33pNHuzx0u8Zp-97" value="RISING/FALLING MODE INV" style="text;html=1;strokeColor=none;fillColor=none;align=center;verticalAlign=middle;whiteSpace=wrap;rounded=0;fontSize=18;fontStyle=1" vertex="1" parent="1">
          <mxGeometry x="635" y="524" width="187" height="30" as="geometry" />
        </mxCell>
        <mxCell id="UyIN8Gw33pNHuzx0u8Zp-107" value="" style="triangle;whiteSpace=wrap;html=1;rotation=-90;fillColor=#dae8fc;strokeColor=none;" vertex="1" parent="1">
          <mxGeometry x="80.7" y="572.98" width="60" height="60.79" as="geometry" />
        </mxCell>
        <mxCell id="UyIN8Gw33pNHuzx0u8Zp-109" value="LIGHT OFF" style="text;html=1;strokeColor=none;fillColor=none;align=center;verticalAlign=middle;whiteSpace=wrap;rounded=0;fontSize=14;" vertex="1" parent="1">
          <mxGeometry x="135" y="587.35" width="60" height="30" as="geometry" />
        </mxCell>
        <mxCell id="UyIN8Gw33pNHuzx0u8Zp-111" value="LIGHT OFF" style="text;html=1;strokeColor=none;fillColor=none;align=center;verticalAlign=middle;whiteSpace=wrap;rounded=0;fontSize=14;" vertex="1" parent="1">
          <mxGeometry x="198.7" y="587.36" width="60" height="30" as="geometry" />
        </mxCell>
        <mxCell id="UyIN8Gw33pNHuzx0u8Zp-112" value="" style="triangle;whiteSpace=wrap;html=1;rotation=-90;fillColor=#dae8fc;strokeColor=none;" vertex="1" parent="1">
          <mxGeometry x="240.7" y="571.96" width="60" height="60.79" as="geometry" />
        </mxCell>
        <mxCell id="UyIN8Gw33pNHuzx0u8Zp-113" value="LIGHT OFF" style="text;html=1;strokeColor=none;fillColor=none;align=center;verticalAlign=middle;whiteSpace=wrap;rounded=0;fontSize=14;" vertex="1" parent="1">
          <mxGeometry x="280" y="587.35" width="60" height="30" as="geometry" />
        </mxCell>
        <mxCell id="UyIN8Gw33pNHuzx0u8Zp-102" value="" style="shape=flexArrow;endArrow=classic;html=1;rounded=0;fillColor=default;" edge="1" parent="1">
          <mxGeometry width="50" height="50" relative="1" as="geometry">
            <mxPoint x="40" y="634" as="sourcePoint" />
            <mxPoint x="360" y="634" as="targetPoint" />
          </mxGeometry>
        </mxCell>
        <mxCell id="UyIN8Gw33pNHuzx0u8Zp-114" value="Start unit" style="text;html=1;align=center;verticalAlign=middle;whiteSpace=wrap;rounded=0;fontSize=14;fontColor=#008200;" vertex="1" parent="1">
          <mxGeometry x="444" y="644" width="60" height="30" as="geometry" />
        </mxCell>
        <mxCell id="UyIN8Gw33pNHuzx0u8Zp-115" value="End unit" style="text;html=1;strokeColor=none;fillColor=none;align=center;verticalAlign=middle;whiteSpace=wrap;rounded=0;fontSize=14;fontColor=#9C0000;" vertex="1" parent="1">
          <mxGeometry x="524" y="644" width="60" height="30" as="geometry" />
        </mxCell>
        <mxCell id="UyIN8Gw33pNHuzx0u8Zp-117" value="" style="endArrow=classic;startArrow=classic;html=1;rounded=0;" edge="1" parent="1">
          <mxGeometry width="50" height="50" relative="1" as="geometry">
            <mxPoint x="440" y="553.31" as="sourcePoint" />
            <mxPoint x="590" y="553" as="targetPoint" />
          </mxGeometry>
        </mxCell>
        <mxCell id="UyIN8Gw33pNHuzx0u8Zp-118" value="Period" style="text;html=1;strokeColor=none;fillColor=none;align=center;verticalAlign=middle;whiteSpace=wrap;rounded=0;fontSize=14;" vertex="1" parent="1">
          <mxGeometry x="482.7" y="524" width="60" height="30" as="geometry" />
        </mxCell>
        <mxCell id="UyIN8Gw33pNHuzx0u8Zp-119" value="" style="triangle;whiteSpace=wrap;html=1;rotation=-90;fillColor=#dae8fc;strokeColor=none;" vertex="1" parent="1">
          <mxGeometry x="482.7" y="572.98" width="60" height="60.79" as="geometry" />
        </mxCell>
        <mxCell id="UyIN8Gw33pNHuzx0u8Zp-122" value="" style="triangle;whiteSpace=wrap;html=1;rotation=-90;fillColor=#dae8fc;strokeColor=none;" vertex="1" parent="1">
          <mxGeometry x="641.22" y="570.48" width="60" height="63.75" as="geometry" />
        </mxCell>
        <mxCell id="UyIN8Gw33pNHuzx0u8Zp-125" value="Time" style="text;html=1;strokeColor=none;fillColor=none;align=center;verticalAlign=middle;whiteSpace=wrap;rounded=0;fontSize=14;" vertex="1" parent="1">
          <mxGeometry x="757" y="618.38" width="60" height="30" as="geometry" />
        </mxCell>
        <mxCell id="UyIN8Gw33pNHuzx0u8Zp-126" value="" style="rounded=0;whiteSpace=wrap;html=1;fillColor=#dae8fc;strokeColor=none;" vertex="1" parent="1">
          <mxGeometry x="440" y="572.36" width="45" height="62.04" as="geometry" />
        </mxCell>
        <mxCell id="UyIN8Gw33pNHuzx0u8Zp-127" value="" style="rounded=0;whiteSpace=wrap;html=1;fillColor=#dae8fc;strokeColor=none;" vertex="1" parent="1">
          <mxGeometry x="539" y="573.77" width="102" height="60" as="geometry" />
        </mxCell>
        <mxCell id="UyIN8Gw33pNHuzx0u8Zp-129" value="" style="rounded=0;whiteSpace=wrap;html=1;fillColor=#dae8fc;strokeColor=none;" vertex="1" parent="1">
          <mxGeometry x="701" y="572.75" width="49" height="62.04" as="geometry" />
        </mxCell>
        <mxCell id="UyIN8Gw33pNHuzx0u8Zp-124" value="" style="shape=flexArrow;endArrow=classic;html=1;rounded=0;fillColor=default;" edge="1" parent="1">
          <mxGeometry width="50" height="50" relative="1" as="geometry">
            <mxPoint x="440" y="634" as="sourcePoint" />
            <mxPoint x="772" y="634" as="targetPoint" />
          </mxGeometry>
        </mxCell>
        <mxCell id="UyIN8Gw33pNHuzx0u8Zp-130" value="Start unit" style="text;html=1;align=center;verticalAlign=middle;whiteSpace=wrap;rounded=0;fontSize=14;fontColor=#008200;" vertex="1" parent="1">
          <mxGeometry x="62" y="824" width="60" height="30" as="geometry" />
        </mxCell>
        <mxCell id="UyIN8Gw33pNHuzx0u8Zp-131" value="End unit" style="text;html=1;strokeColor=none;fillColor=none;align=center;verticalAlign=middle;whiteSpace=wrap;rounded=0;fontSize=14;fontColor=#9C0000;" vertex="1" parent="1">
          <mxGeometry x="128" y="824" width="60" height="30" as="geometry" />
        </mxCell>
        <mxCell id="UyIN8Gw33pNHuzx0u8Zp-132" value="LIGHT OFF" style="text;html=1;strokeColor=none;fillColor=none;align=center;verticalAlign=middle;whiteSpace=wrap;rounded=0;fontSize=14;" vertex="1" parent="1">
          <mxGeometry x="40" y="768.38" width="60" height="30" as="geometry" />
        </mxCell>
        <mxCell id="UyIN8Gw33pNHuzx0u8Zp-133" value="FALLING/RISING MODE" style="text;html=1;strokeColor=none;fillColor=none;align=center;verticalAlign=middle;whiteSpace=wrap;rounded=0;fontSize=18;fontStyle=1" vertex="1" parent="1">
          <mxGeometry x="230" y="704" width="160" height="30" as="geometry" />
        </mxCell>
        <mxCell id="UyIN8Gw33pNHuzx0u8Zp-134" value="" style="endArrow=classic;startArrow=classic;html=1;rounded=0;" edge="1" parent="1">
          <mxGeometry width="50" height="50" relative="1" as="geometry">
            <mxPoint x="48" y="734" as="sourcePoint" />
            <mxPoint x="208" y="734" as="targetPoint" />
          </mxGeometry>
        </mxCell>
        <mxCell id="UyIN8Gw33pNHuzx0u8Zp-135" value="Period" style="text;html=1;strokeColor=none;fillColor=none;align=center;verticalAlign=middle;whiteSpace=wrap;rounded=0;fontSize=14;" vertex="1" parent="1">
          <mxGeometry x="98" y="704" width="60" height="30" as="geometry" />
        </mxCell>
        <mxCell id="UyIN8Gw33pNHuzx0u8Zp-136" value="FALLING/RISING MODE INV" style="text;html=1;strokeColor=none;fillColor=none;align=center;verticalAlign=middle;whiteSpace=wrap;rounded=0;fontSize=18;fontStyle=1" vertex="1" parent="1">
          <mxGeometry x="635" y="704" width="187" height="30" as="geometry" />
        </mxCell>
        <mxCell id="UyIN8Gw33pNHuzx0u8Zp-138" value="LIGHT OFF" style="text;html=1;strokeColor=none;fillColor=none;align=center;verticalAlign=middle;whiteSpace=wrap;rounded=0;fontSize=14;" vertex="1" parent="1">
          <mxGeometry x="147" y="768.38" width="60" height="30" as="geometry" />
        </mxCell>
        <mxCell id="UyIN8Gw33pNHuzx0u8Zp-139" value="LIGHT OFF" style="text;html=1;strokeColor=none;fillColor=none;align=center;verticalAlign=middle;whiteSpace=wrap;rounded=0;fontSize=14;" vertex="1" parent="1">
          <mxGeometry x="198.7" y="768.38" width="60" height="30" as="geometry" />
        </mxCell>
        <mxCell id="UyIN8Gw33pNHuzx0u8Zp-141" value="LIGHT OFF" style="text;html=1;strokeColor=none;fillColor=none;align=center;verticalAlign=middle;whiteSpace=wrap;rounded=0;fontSize=14;" vertex="1" parent="1">
          <mxGeometry x="305" y="767.58" width="60" height="30" as="geometry" />
        </mxCell>
        <mxCell id="UyIN8Gw33pNHuzx0u8Zp-143" value="Start unit" style="text;html=1;align=center;verticalAlign=middle;whiteSpace=wrap;rounded=0;fontSize=14;fontColor=#008200;" vertex="1" parent="1">
          <mxGeometry x="450" y="824" width="60" height="30" as="geometry" />
        </mxCell>
        <mxCell id="UyIN8Gw33pNHuzx0u8Zp-144" value="End unit" style="text;html=1;strokeColor=none;fillColor=none;align=center;verticalAlign=middle;whiteSpace=wrap;rounded=0;fontSize=14;fontColor=#9C0000;" vertex="1" parent="1">
          <mxGeometry x="512.7" y="824" width="60" height="30" as="geometry" />
        </mxCell>
        <mxCell id="UyIN8Gw33pNHuzx0u8Zp-145" value="" style="endArrow=classic;startArrow=classic;html=1;rounded=0;" edge="1" parent="1">
          <mxGeometry width="50" height="50" relative="1" as="geometry">
            <mxPoint x="440" y="733.31" as="sourcePoint" />
            <mxPoint x="590" y="733" as="targetPoint" />
          </mxGeometry>
        </mxCell>
        <mxCell id="UyIN8Gw33pNHuzx0u8Zp-146" value="Period" style="text;html=1;strokeColor=none;fillColor=none;align=center;verticalAlign=middle;whiteSpace=wrap;rounded=0;fontSize=14;" vertex="1" parent="1">
          <mxGeometry x="482.7" y="704" width="60" height="30" as="geometry" />
        </mxCell>
        <mxCell id="UyIN8Gw33pNHuzx0u8Zp-149" value="Time" style="text;html=1;strokeColor=none;fillColor=none;align=center;verticalAlign=middle;whiteSpace=wrap;rounded=0;fontSize=14;" vertex="1" parent="1">
          <mxGeometry x="757" y="798.38" width="60" height="30" as="geometry" />
        </mxCell>
        <mxCell id="UyIN8Gw33pNHuzx0u8Zp-150" value="" style="rounded=0;whiteSpace=wrap;html=1;fillColor=#dae8fc;strokeColor=none;" vertex="1" parent="1">
          <mxGeometry x="440" y="752.36" width="42.7" height="62.04" as="geometry" />
        </mxCell>
        <mxCell id="UyIN8Gw33pNHuzx0u8Zp-151" value="" style="rounded=0;whiteSpace=wrap;html=1;fillColor=#dae8fc;strokeColor=none;" vertex="1" parent="1">
          <mxGeometry x="542.7" y="751.96" width="98" height="59.77" as="geometry" />
        </mxCell>
        <mxCell id="UyIN8Gw33pNHuzx0u8Zp-152" value="" style="rounded=0;whiteSpace=wrap;html=1;fillColor=#dae8fc;strokeColor=none;" vertex="1" parent="1">
          <mxGeometry x="700.6999999999999" y="752.58" width="47.85" height="62.04" as="geometry" />
        </mxCell>
        <mxCell id="UyIN8Gw33pNHuzx0u8Zp-154" value="" style="verticalLabelPosition=bottom;verticalAlign=top;html=1;shape=mxgraph.basic.orthogonal_triangle;flipH=0;fillColor=#dae8fc;strokeColor=none;" vertex="1" parent="1">
          <mxGeometry x="94" y="754.8" width="30" height="60" as="geometry" />
        </mxCell>
        <mxCell id="UyIN8Gw33pNHuzx0u8Zp-155" value="" style="verticalLabelPosition=bottom;verticalAlign=top;html=1;shape=mxgraph.basic.orthogonal_triangle;flipH=1;fillColor=#dae8fc;strokeColor=none;" vertex="1" parent="1">
          <mxGeometry x="117" y="754.8" width="30" height="60" as="geometry" />
        </mxCell>
        <mxCell id="UyIN8Gw33pNHuzx0u8Zp-156" value="" style="verticalLabelPosition=bottom;verticalAlign=top;html=1;shape=mxgraph.basic.orthogonal_triangle;flipH=0;fillColor=#dae8fc;strokeColor=none;" vertex="1" parent="1">
          <mxGeometry x="250" y="753.6" width="30" height="60" as="geometry" />
        </mxCell>
        <mxCell id="UyIN8Gw33pNHuzx0u8Zp-157" value="" style="verticalLabelPosition=bottom;verticalAlign=top;html=1;shape=mxgraph.basic.orthogonal_triangle;flipH=1;fillColor=#dae8fc;strokeColor=none;" vertex="1" parent="1">
          <mxGeometry x="275" y="753.5999999999999" width="30" height="60" as="geometry" />
        </mxCell>
        <mxCell id="UyIN8Gw33pNHuzx0u8Zp-142" value="" style="shape=flexArrow;endArrow=classic;html=1;rounded=0;fillColor=default;" edge="1" parent="1">
          <mxGeometry width="50" height="50" relative="1" as="geometry">
            <mxPoint x="48" y="814" as="sourcePoint" />
            <mxPoint x="388" y="814" as="targetPoint" />
          </mxGeometry>
        </mxCell>
        <mxCell id="UyIN8Gw33pNHuzx0u8Zp-162" value="" style="verticalLabelPosition=bottom;verticalAlign=top;html=1;shape=mxgraph.basic.orthogonal_triangle;flipH=0;fillColor=#dae8fc;strokeColor=none;" vertex="1" parent="1">
          <mxGeometry x="482" y="751.73" width="30" height="60" as="geometry" />
        </mxCell>
        <mxCell id="UyIN8Gw33pNHuzx0u8Zp-163" value="" style="verticalLabelPosition=bottom;verticalAlign=top;html=1;shape=mxgraph.basic.orthogonal_triangle;flipH=1;fillColor=#dae8fc;strokeColor=none;" vertex="1" parent="1">
          <mxGeometry x="512.7" y="751.7299999999999" width="30" height="60" as="geometry" />
        </mxCell>
        <mxCell id="UyIN8Gw33pNHuzx0u8Zp-164" value="" style="verticalLabelPosition=bottom;verticalAlign=top;html=1;shape=mxgraph.basic.orthogonal_triangle;flipH=0;fillColor=#dae8fc;strokeColor=none;" vertex="1" parent="1">
          <mxGeometry x="640.7" y="752.58" width="30" height="60" as="geometry" />
        </mxCell>
        <mxCell id="UyIN8Gw33pNHuzx0u8Zp-165" value="" style="verticalLabelPosition=bottom;verticalAlign=top;html=1;shape=mxgraph.basic.orthogonal_triangle;flipH=1;fillColor=#dae8fc;strokeColor=none;" vertex="1" parent="1">
          <mxGeometry x="670.7" y="752.98" width="30" height="60" as="geometry" />
        </mxCell>
        <mxCell id="UyIN8Gw33pNHuzx0u8Zp-153" value="" style="shape=flexArrow;endArrow=classic;html=1;rounded=0;fillColor=default;" edge="1" parent="1">
          <mxGeometry width="50" height="50" relative="1" as="geometry">
            <mxPoint x="440" y="814" as="sourcePoint" />
            <mxPoint x="772" y="814" as="targetPoint" />
          </mxGeometry>
        </mxCell>
        <mxCell id="UyIN8Gw33pNHuzx0u8Zp-167" value="" style="endArrow=none;dashed=1;html=1;rounded=0;fillColor=#d5e8d4;strokeColor=#82b366;" edge="1" parent="1">
          <mxGeometry width="50" height="50" relative="1" as="geometry">
            <mxPoint x="42" y="124" as="sourcePoint" />
            <mxPoint x="42" y="39" as="targetPoint" />
          </mxGeometry>
        </mxCell>
        <mxCell id="UyIN8Gw33pNHuzx0u8Zp-168" value="" style="endArrow=none;dashed=1;html=1;rounded=0;fillColor=#f8cecc;strokeColor=#b85450;" edge="1" parent="1">
          <mxGeometry width="50" height="50" relative="1" as="geometry">
            <mxPoint x="122" y="125" as="sourcePoint" />
            <mxPoint x="121.73" y="40" as="targetPoint" />
          </mxGeometry>
        </mxCell>
        <mxCell id="UyIN8Gw33pNHuzx0u8Zp-169" value="" style="endArrow=none;dashed=1;html=1;rounded=0;fillColor=#fff2cc;strokeColor=#d6b656;" edge="1" parent="1">
          <mxGeometry width="50" height="50" relative="1" as="geometry">
            <mxPoint x="202" y="124" as="sourcePoint" />
            <mxPoint x="202" y="40" as="targetPoint" />
          </mxGeometry>
        </mxCell>
        <mxCell id="UyIN8Gw33pNHuzx0u8Zp-170" value="" style="endArrow=none;dashed=1;html=1;rounded=0;fillColor=#d5e8d4;strokeColor=#82b366;" edge="1" parent="1">
          <mxGeometry width="50" height="50" relative="1" as="geometry">
            <mxPoint x="48" y="295" as="sourcePoint" />
            <mxPoint x="48" y="210" as="targetPoint" />
          </mxGeometry>
        </mxCell>
        <mxCell id="UyIN8Gw33pNHuzx0u8Zp-171" value="" style="endArrow=none;dashed=1;html=1;rounded=0;fillColor=#f8cecc;strokeColor=#b85450;" edge="1" parent="1">
          <mxGeometry width="50" height="50" relative="1" as="geometry">
            <mxPoint x="120.1" y="295" as="sourcePoint" />
            <mxPoint x="119.83000000000001" y="210" as="targetPoint" />
          </mxGeometry>
        </mxCell>
        <mxCell id="UyIN8Gw33pNHuzx0u8Zp-172" value="" style="endArrow=none;dashed=1;html=1;rounded=0;fillColor=#fff2cc;strokeColor=#d6b656;" edge="1" parent="1">
          <mxGeometry width="50" height="50" relative="1" as="geometry">
            <mxPoint x="200" y="294" as="sourcePoint" />
            <mxPoint x="200" y="210" as="targetPoint" />
          </mxGeometry>
        </mxCell>
        <mxCell id="UyIN8Gw33pNHuzx0u8Zp-173" value="" style="endArrow=none;dashed=1;html=1;rounded=0;fillColor=#fff2cc;strokeColor=#d6b656;" edge="1" parent="1">
          <mxGeometry width="50" height="50" relative="1" as="geometry">
            <mxPoint x="40" y="294" as="sourcePoint" />
            <mxPoint x="40" y="210" as="targetPoint" />
          </mxGeometry>
        </mxCell>
        <mxCell id="UyIN8Gw33pNHuzx0u8Zp-174" value="" style="endArrow=none;dashed=1;html=1;rounded=0;fillColor=#fff2cc;strokeColor=#d6b656;" edge="1" parent="1">
          <mxGeometry width="50" height="50" relative="1" as="geometry">
            <mxPoint x="440" y="294" as="sourcePoint" />
            <mxPoint x="440" y="210" as="targetPoint" />
          </mxGeometry>
        </mxCell>
        <mxCell id="UyIN8Gw33pNHuzx0u8Zp-175" value="" style="endArrow=none;dashed=1;html=1;rounded=0;fillColor=#fff2cc;strokeColor=#d6b656;" edge="1" parent="1">
          <mxGeometry width="50" height="50" relative="1" as="geometry">
            <mxPoint x="739.67" y="294" as="sourcePoint" />
            <mxPoint x="739.67" y="210" as="targetPoint" />
          </mxGeometry>
        </mxCell>
        <mxCell id="UyIN8Gw33pNHuzx0u8Zp-176" value="" style="endArrow=none;dashed=1;html=1;rounded=0;fillColor=#f8cecc;strokeColor=#b85450;" edge="1" parent="1">
          <mxGeometry width="50" height="50" relative="1" as="geometry">
            <mxPoint x="599.93" y="295" as="sourcePoint" />
            <mxPoint x="599.66" y="210" as="targetPoint" />
          </mxGeometry>
        </mxCell>
        <mxCell id="UyIN8Gw33pNHuzx0u8Zp-177" value="" style="endArrow=none;dashed=1;html=1;rounded=0;fillColor=#d5e8d4;strokeColor=#82b366;" edge="1" parent="1">
          <mxGeometry width="50" height="50" relative="1" as="geometry">
            <mxPoint x="520" y="295" as="sourcePoint" />
            <mxPoint x="520" y="210" as="targetPoint" />
          </mxGeometry>
        </mxCell>
        <mxCell id="UyIN8Gw33pNHuzx0u8Zp-178" value="" style="endArrow=none;dashed=1;html=1;rounded=0;fillColor=#d5e8d4;strokeColor=#82b366;" edge="1" parent="1">
          <mxGeometry width="50" height="50" relative="1" as="geometry">
            <mxPoint x="48" y="465" as="sourcePoint" />
            <mxPoint x="48" y="380" as="targetPoint" />
          </mxGeometry>
        </mxCell>
        <mxCell id="UyIN8Gw33pNHuzx0u8Zp-179" value="" style="endArrow=none;dashed=1;html=1;rounded=0;fillColor=#fff2cc;strokeColor=#d6b656;" edge="1" parent="1">
          <mxGeometry width="50" height="50" relative="1" as="geometry">
            <mxPoint x="40" y="464" as="sourcePoint" />
            <mxPoint x="40" y="380" as="targetPoint" />
          </mxGeometry>
        </mxCell>
        <mxCell id="UyIN8Gw33pNHuzx0u8Zp-180" value="" style="endArrow=none;dashed=1;html=1;rounded=0;fillColor=#f8cecc;strokeColor=#b85450;" edge="1" parent="1">
          <mxGeometry width="50" height="50" relative="1" as="geometry">
            <mxPoint x="119.47" y="465" as="sourcePoint" />
            <mxPoint x="119.20000000000002" y="380" as="targetPoint" />
          </mxGeometry>
        </mxCell>
        <mxCell id="UyIN8Gw33pNHuzx0u8Zp-181" value="" style="endArrow=none;dashed=1;html=1;rounded=0;fillColor=#fff2cc;strokeColor=#d6b656;" edge="1" parent="1">
          <mxGeometry width="50" height="50" relative="1" as="geometry">
            <mxPoint x="208" y="464" as="sourcePoint" />
            <mxPoint x="208" y="380" as="targetPoint" />
          </mxGeometry>
        </mxCell>
        <mxCell id="UyIN8Gw33pNHuzx0u8Zp-187" value="" style="endArrow=none;dashed=1;html=1;rounded=0;fillColor=#fff2cc;strokeColor=#d6b656;" edge="1" parent="1">
          <mxGeometry width="50" height="50" relative="1" as="geometry">
            <mxPoint x="440" y="464" as="sourcePoint" />
            <mxPoint x="440" y="380" as="targetPoint" />
          </mxGeometry>
        </mxCell>
        <mxCell id="UyIN8Gw33pNHuzx0u8Zp-188" value="" style="endArrow=none;dashed=1;html=1;rounded=0;fillColor=#fff2cc;strokeColor=#d6b656;" edge="1" parent="1">
          <mxGeometry width="50" height="50" relative="1" as="geometry">
            <mxPoint x="739.67" y="464" as="sourcePoint" />
            <mxPoint x="739.67" y="380" as="targetPoint" />
          </mxGeometry>
        </mxCell>
        <mxCell id="UyIN8Gw33pNHuzx0u8Zp-189" value="" style="endArrow=none;dashed=1;html=1;rounded=0;fillColor=#f8cecc;strokeColor=#b85450;" edge="1" parent="1">
          <mxGeometry width="50" height="50" relative="1" as="geometry">
            <mxPoint x="599.93" y="465" as="sourcePoint" />
            <mxPoint x="599.66" y="380" as="targetPoint" />
          </mxGeometry>
        </mxCell>
        <mxCell id="UyIN8Gw33pNHuzx0u8Zp-190" value="" style="endArrow=none;dashed=1;html=1;rounded=0;fillColor=#d5e8d4;strokeColor=#82b366;" edge="1" parent="1">
          <mxGeometry width="50" height="50" relative="1" as="geometry">
            <mxPoint x="520" y="465" as="sourcePoint" />
            <mxPoint x="520" y="380" as="targetPoint" />
          </mxGeometry>
        </mxCell>
        <mxCell id="UyIN8Gw33pNHuzx0u8Zp-191" value="" style="endArrow=none;dashed=1;html=1;rounded=0;fillColor=#fff2cc;strokeColor=#d6b656;" edge="1" parent="1">
          <mxGeometry width="50" height="50" relative="1" as="geometry">
            <mxPoint x="40" y="638" as="sourcePoint" />
            <mxPoint x="40" y="554" as="targetPoint" />
          </mxGeometry>
        </mxCell>
        <mxCell id="UyIN8Gw33pNHuzx0u8Zp-192" value="" style="endArrow=none;dashed=1;html=1;rounded=0;fillColor=#d5e8d4;strokeColor=#82b366;" edge="1" parent="1">
          <mxGeometry width="50" height="50" relative="1" as="geometry">
            <mxPoint x="85" y="639" as="sourcePoint" />
            <mxPoint x="85" y="554" as="targetPoint" />
          </mxGeometry>
        </mxCell>
        <mxCell id="UyIN8Gw33pNHuzx0u8Zp-193" value="" style="endArrow=none;dashed=1;html=1;rounded=0;fillColor=#f8cecc;strokeColor=#b85450;" edge="1" parent="1">
          <mxGeometry width="50" height="50" relative="1" as="geometry">
            <mxPoint x="139.5" y="639" as="sourcePoint" />
            <mxPoint x="139.23000000000002" y="554" as="targetPoint" />
          </mxGeometry>
        </mxCell>
        <mxCell id="UyIN8Gw33pNHuzx0u8Zp-194" value="" style="endArrow=none;dashed=1;html=1;rounded=0;fillColor=#fff2cc;strokeColor=#d6b656;" edge="1" parent="1">
          <mxGeometry width="50" height="50" relative="1" as="geometry">
            <mxPoint x="188" y="638" as="sourcePoint" />
            <mxPoint x="188" y="554" as="targetPoint" />
          </mxGeometry>
        </mxCell>
        <mxCell id="UyIN8Gw33pNHuzx0u8Zp-195" value="" style="endArrow=none;dashed=1;html=1;rounded=0;fillColor=#fff2cc;strokeColor=#d6b656;" edge="1" parent="1">
          <mxGeometry width="50" height="50" relative="1" as="geometry">
            <mxPoint x="440" y="638" as="sourcePoint" />
            <mxPoint x="440" y="554" as="targetPoint" />
          </mxGeometry>
        </mxCell>
        <mxCell id="UyIN8Gw33pNHuzx0u8Zp-196" value="" style="endArrow=none;dashed=1;html=1;rounded=0;fillColor=#d5e8d4;strokeColor=#82b366;" edge="1" parent="1">
          <mxGeometry width="50" height="50" relative="1" as="geometry">
            <mxPoint x="485" y="639" as="sourcePoint" />
            <mxPoint x="485" y="554" as="targetPoint" />
          </mxGeometry>
        </mxCell>
        <mxCell id="UyIN8Gw33pNHuzx0u8Zp-197" value="" style="endArrow=none;dashed=1;html=1;rounded=0;fillColor=#f8cecc;strokeColor=#b85450;" edge="1" parent="1">
          <mxGeometry width="50" height="50" relative="1" as="geometry">
            <mxPoint x="539.5" y="639" as="sourcePoint" />
            <mxPoint x="539.23" y="554" as="targetPoint" />
          </mxGeometry>
        </mxCell>
        <mxCell id="UyIN8Gw33pNHuzx0u8Zp-198" value="" style="endArrow=none;dashed=1;html=1;rounded=0;fillColor=#fff2cc;strokeColor=#d6b656;" edge="1" parent="1">
          <mxGeometry width="50" height="50" relative="1" as="geometry">
            <mxPoint x="591" y="639" as="sourcePoint" />
            <mxPoint x="590" y="553" as="targetPoint" />
          </mxGeometry>
        </mxCell>
        <mxCell id="UyIN8Gw33pNHuzx0u8Zp-200" value="" style="endArrow=none;dashed=1;html=1;rounded=0;fillColor=#fff2cc;strokeColor=#d6b656;" edge="1" parent="1">
          <mxGeometry width="50" height="50" relative="1" as="geometry">
            <mxPoint x="440" y="819" as="sourcePoint" />
            <mxPoint x="440" y="733" as="targetPoint" />
          </mxGeometry>
        </mxCell>
        <mxCell id="UyIN8Gw33pNHuzx0u8Zp-201" value="" style="endArrow=none;dashed=1;html=1;rounded=0;fillColor=#d5e8d4;strokeColor=#82b366;" edge="1" parent="1">
          <mxGeometry width="50" height="50" relative="1" as="geometry">
            <mxPoint x="482.7" y="819" as="sourcePoint" />
            <mxPoint x="482.7" y="734" as="targetPoint" />
          </mxGeometry>
        </mxCell>
        <mxCell id="UyIN8Gw33pNHuzx0u8Zp-202" value="" style="endArrow=none;dashed=1;html=1;rounded=0;fillColor=#f8cecc;strokeColor=#b85450;" edge="1" parent="1">
          <mxGeometry width="50" height="50" relative="1" as="geometry">
            <mxPoint x="542.6" y="819" as="sourcePoint" />
            <mxPoint x="542.33" y="734" as="targetPoint" />
          </mxGeometry>
        </mxCell>
        <mxCell id="UyIN8Gw33pNHuzx0u8Zp-203" value="" style="endArrow=none;dashed=1;html=1;rounded=0;fillColor=#fff2cc;strokeColor=#d6b656;" edge="1" parent="1">
          <mxGeometry width="50" height="50" relative="1" as="geometry">
            <mxPoint x="591" y="820" as="sourcePoint" />
            <mxPoint x="590" y="734" as="targetPoint" />
          </mxGeometry>
        </mxCell>
        <mxCell id="UyIN8Gw33pNHuzx0u8Zp-204" value="" style="endArrow=none;dashed=1;html=1;rounded=0;fillColor=#fff2cc;strokeColor=#d6b656;" edge="1" parent="1">
          <mxGeometry width="50" height="50" relative="1" as="geometry">
            <mxPoint x="49" y="819" as="sourcePoint" />
            <mxPoint x="49" y="735" as="targetPoint" />
          </mxGeometry>
        </mxCell>
        <mxCell id="UyIN8Gw33pNHuzx0u8Zp-205" value="" style="endArrow=none;dashed=1;html=1;rounded=0;fillColor=#d5e8d4;strokeColor=#82b366;" edge="1" parent="1">
          <mxGeometry width="50" height="50" relative="1" as="geometry">
            <mxPoint x="94" y="820" as="sourcePoint" />
            <mxPoint x="94" y="735" as="targetPoint" />
          </mxGeometry>
        </mxCell>
        <mxCell id="UyIN8Gw33pNHuzx0u8Zp-206" value="" style="endArrow=none;dashed=1;html=1;rounded=0;fillColor=#f8cecc;strokeColor=#b85450;" edge="1" parent="1">
          <mxGeometry width="50" height="50" relative="1" as="geometry">
            <mxPoint x="147.27" y="819" as="sourcePoint" />
            <mxPoint x="147.00000000000003" y="734" as="targetPoint" />
          </mxGeometry>
        </mxCell>
        <mxCell id="UyIN8Gw33pNHuzx0u8Zp-207" value="" style="endArrow=none;dashed=1;html=1;rounded=0;fillColor=#fff2cc;strokeColor=#d6b656;" edge="1" parent="1">
          <mxGeometry width="50" height="50" relative="1" as="geometry">
            <mxPoint x="208" y="820" as="sourcePoint" />
            <mxPoint x="207" y="734" as="targetPoint" />
          </mxGeometry>
        </mxCell>
        <mxCell id="UyIN8Gw33pNHuzx0u8Zp-220" value="TWO LEDS WORKING WITH A DIFFERENT SETTINGS" style="text;html=1;strokeColor=none;fillColor=none;align=center;verticalAlign=middle;whiteSpace=wrap;rounded=0;fontSize=18;fontStyle=1" vertex="1" parent="1">
          <mxGeometry x="567.38" y="910" width="254.62" height="50" as="geometry" />
        </mxCell>
        <mxCell id="UyIN8Gw33pNHuzx0u8Zp-232" value="0" style="text;html=1;strokeColor=none;fillColor=none;align=center;verticalAlign=middle;whiteSpace=wrap;rounded=0;fontSize=14;" vertex="1" parent="1">
          <mxGeometry x="12" y="1130" width="60" height="30" as="geometry" />
        </mxCell>
        <mxCell id="UyIN8Gw33pNHuzx0u8Zp-233" value="1000" style="text;html=1;strokeColor=none;fillColor=none;align=center;verticalAlign=middle;whiteSpace=wrap;rounded=0;fontSize=14;" vertex="1" parent="1">
          <mxGeometry x="128" y="1130" width="60" height="30" as="geometry" />
        </mxCell>
        <mxCell id="UyIN8Gw33pNHuzx0u8Zp-234" value="2000" style="text;html=1;strokeColor=none;fillColor=none;align=center;verticalAlign=middle;whiteSpace=wrap;rounded=0;fontSize=14;" vertex="1" parent="1">
          <mxGeometry x="250" y="1130" width="60" height="30" as="geometry" />
        </mxCell>
        <mxCell id="UyIN8Gw33pNHuzx0u8Zp-235" value="3000" style="text;html=1;strokeColor=none;fillColor=none;align=center;verticalAlign=middle;whiteSpace=wrap;rounded=0;fontSize=14;" vertex="1" parent="1">
          <mxGeometry x="370" y="1130" width="60" height="30" as="geometry" />
        </mxCell>
        <mxCell id="UyIN8Gw33pNHuzx0u8Zp-236" value="4000" style="text;html=1;strokeColor=none;fillColor=none;align=center;verticalAlign=middle;whiteSpace=wrap;rounded=0;fontSize=14;" vertex="1" parent="1">
          <mxGeometry x="490" y="1130" width="60" height="30" as="geometry" />
        </mxCell>
        <mxCell id="UyIN8Gw33pNHuzx0u8Zp-237" value="5000" style="text;html=1;strokeColor=none;fillColor=none;align=center;verticalAlign=middle;whiteSpace=wrap;rounded=0;fontSize=14;" vertex="1" parent="1">
          <mxGeometry x="610" y="1130" width="60" height="30" as="geometry" />
        </mxCell>
        <mxCell id="UyIN8Gw33pNHuzx0u8Zp-238" value="" style="triangle;whiteSpace=wrap;html=1;rotation=-90;fillColor=#f8cecc;strokeColor=none;" vertex="1" parent="1">
          <mxGeometry x="70.38" y="1030.4" width="60" height="120" as="geometry" />
        </mxCell>
        <mxCell id="UyIN8Gw33pNHuzx0u8Zp-239" value="" style="triangle;whiteSpace=wrap;html=1;rotation=-90;fillColor=#f8cecc;strokeColor=none;" vertex="1" parent="1">
          <mxGeometry x="190" y="1030.4" width="60" height="120" as="geometry" />
        </mxCell>
        <mxCell id="UyIN8Gw33pNHuzx0u8Zp-240" value="" style="triangle;whiteSpace=wrap;html=1;rotation=-90;fillColor=#f8cecc;strokeColor=none;" vertex="1" parent="1">
          <mxGeometry x="310" y="1030.4" width="60" height="120" as="geometry" />
        </mxCell>
        <mxCell id="UyIN8Gw33pNHuzx0u8Zp-241" value="" style="triangle;whiteSpace=wrap;html=1;rotation=-90;fillColor=#f8cecc;strokeColor=none;" vertex="1" parent="1">
          <mxGeometry x="430" y="1030.4" width="60" height="120" as="geometry" />
        </mxCell>
        <mxCell id="UyIN8Gw33pNHuzx0u8Zp-242" value="" style="triangle;whiteSpace=wrap;html=1;rotation=-90;fillColor=#f8cecc;strokeColor=none;" vertex="1" parent="1">
          <mxGeometry x="550" y="1030.4" width="60" height="120" as="geometry" />
        </mxCell>
        <mxCell id="UyIN8Gw33pNHuzx0u8Zp-226" value="" style="shape=flexArrow;endArrow=classic;html=1;rounded=0;fillColor=default;" edge="1" parent="1">
          <mxGeometry width="50" height="50" relative="1" as="geometry">
            <mxPoint x="40" y="1120" as="sourcePoint" />
            <mxPoint x="688" y="1119.9999999999998" as="targetPoint" />
          </mxGeometry>
        </mxCell>
        <mxCell id="UyIN8Gw33pNHuzx0u8Zp-243" value="Time (milliseconds)" style="text;html=1;strokeColor=none;fillColor=none;align=center;verticalAlign=middle;whiteSpace=wrap;rounded=0;fontSize=14;" vertex="1" parent="1">
          <mxGeometry x="688.55" y="1070" width="101.45" height="30" as="geometry" />
        </mxCell>
        <mxCell id="UyIN8Gw33pNHuzx0u8Zp-244" value="0" style="text;html=1;strokeColor=none;fillColor=none;align=center;verticalAlign=middle;whiteSpace=wrap;rounded=0;fontSize=14;" vertex="1" parent="1">
          <mxGeometry x="12" y="1049.6" width="60" height="30" as="geometry" />
        </mxCell>
        <mxCell id="UyIN8Gw33pNHuzx0u8Zp-245" value="1000" style="text;html=1;strokeColor=none;fillColor=none;align=center;verticalAlign=middle;whiteSpace=wrap;rounded=0;fontSize=14;" vertex="1" parent="1">
          <mxGeometry x="130" y="1049.6" width="60" height="30" as="geometry" />
        </mxCell>
        <mxCell id="UyIN8Gw33pNHuzx0u8Zp-246" value="2000" style="text;html=1;strokeColor=none;fillColor=none;align=center;verticalAlign=middle;whiteSpace=wrap;rounded=0;fontSize=14;" vertex="1" parent="1">
          <mxGeometry x="250" y="1049.6" width="60" height="30" as="geometry" />
        </mxCell>
        <mxCell id="UyIN8Gw33pNHuzx0u8Zp-247" value="3000" style="text;html=1;strokeColor=none;fillColor=none;align=center;verticalAlign=middle;whiteSpace=wrap;rounded=0;fontSize=14;" vertex="1" parent="1">
          <mxGeometry x="370" y="1049.6" width="60" height="30" as="geometry" />
        </mxCell>
        <mxCell id="UyIN8Gw33pNHuzx0u8Zp-248" value="4000" style="text;html=1;strokeColor=none;fillColor=none;align=center;verticalAlign=middle;whiteSpace=wrap;rounded=0;fontSize=14;" vertex="1" parent="1">
          <mxGeometry x="490" y="1049.6" width="60" height="30" as="geometry" />
        </mxCell>
        <mxCell id="UyIN8Gw33pNHuzx0u8Zp-249" value="5000" style="text;html=1;strokeColor=none;fillColor=none;align=center;verticalAlign=middle;whiteSpace=wrap;rounded=0;fontSize=14;" vertex="1" parent="1">
          <mxGeometry x="610" y="1049.6" width="60" height="30" as="geometry" />
        </mxCell>
        <mxCell id="UyIN8Gw33pNHuzx0u8Zp-267" value="" style="verticalLabelPosition=bottom;verticalAlign=top;html=1;shape=mxgraph.basic.orthogonal_triangle;flipH=1;fillColor=#d5e8d4;strokeColor=none;" vertex="1" parent="1">
          <mxGeometry x="130" y="980" width="30" height="60" as="geometry" />
        </mxCell>
        <mxCell id="UyIN8Gw33pNHuzx0u8Zp-268" value="" style="verticalLabelPosition=bottom;verticalAlign=top;html=1;shape=mxgraph.basic.orthogonal_triangle;flipH=0;fillColor=#d5e8d4;strokeColor=none;" vertex="1" parent="1">
          <mxGeometry x="100" y="980" width="30" height="60" as="geometry" />
        </mxCell>
        <mxCell id="UyIN8Gw33pNHuzx0u8Zp-291" value="" style="rounded=0;whiteSpace=wrap;html=1;strokeColor=none;fillColor=#d5e8d4;" vertex="1" parent="1">
          <mxGeometry x="160" y="980" width="120" height="60" as="geometry" />
        </mxCell>
        <mxCell id="UyIN8Gw33pNHuzx0u8Zp-296" value="" style="rounded=0;whiteSpace=wrap;html=1;strokeColor=none;fillColor=#d5e8d4;" vertex="1" parent="1">
          <mxGeometry x="40" y="980" width="60" height="60" as="geometry" />
        </mxCell>
        <mxCell id="UyIN8Gw33pNHuzx0u8Zp-298" value="" style="verticalLabelPosition=bottom;verticalAlign=top;html=1;shape=mxgraph.basic.orthogonal_triangle;flipH=1;fillColor=#d5e8d4;strokeColor=none;" vertex="1" parent="1">
          <mxGeometry x="310" y="980" width="30" height="60" as="geometry" />
        </mxCell>
        <mxCell id="UyIN8Gw33pNHuzx0u8Zp-299" value="" style="verticalLabelPosition=bottom;verticalAlign=top;html=1;shape=mxgraph.basic.orthogonal_triangle;flipH=0;fillColor=#d5e8d4;strokeColor=none;" vertex="1" parent="1">
          <mxGeometry x="280" y="980" width="30" height="60" as="geometry" />
        </mxCell>
        <mxCell id="UyIN8Gw33pNHuzx0u8Zp-300" value="" style="rounded=0;whiteSpace=wrap;html=1;strokeColor=none;fillColor=#d5e8d4;" vertex="1" parent="1">
          <mxGeometry x="340" y="980" width="120" height="60" as="geometry" />
        </mxCell>
        <mxCell id="UyIN8Gw33pNHuzx0u8Zp-301" value="" style="verticalLabelPosition=bottom;verticalAlign=top;html=1;shape=mxgraph.basic.orthogonal_triangle;flipH=1;fillColor=#d5e8d4;strokeColor=none;" vertex="1" parent="1">
          <mxGeometry x="490" y="980" width="30" height="60" as="geometry" />
        </mxCell>
        <mxCell id="UyIN8Gw33pNHuzx0u8Zp-302" value="" style="verticalLabelPosition=bottom;verticalAlign=top;html=1;shape=mxgraph.basic.orthogonal_triangle;flipH=0;fillColor=#d5e8d4;strokeColor=none;" vertex="1" parent="1">
          <mxGeometry x="460" y="980" width="30" height="60" as="geometry" />
        </mxCell>
        <mxCell id="UyIN8Gw33pNHuzx0u8Zp-303" value="" style="rounded=0;whiteSpace=wrap;html=1;strokeColor=none;fillColor=#d5e8d4;" vertex="1" parent="1">
          <mxGeometry x="520" y="980" width="120" height="60" as="geometry" />
        </mxCell>
        <mxCell id="UyIN8Gw33pNHuzx0u8Zp-255" value="" style="shape=flexArrow;endArrow=classic;html=1;rounded=0;fillColor=default;" edge="1" parent="1">
          <mxGeometry width="50" height="50" relative="1" as="geometry">
            <mxPoint x="40" y="1039.6" as="sourcePoint" />
            <mxPoint x="688" y="1039.5999999999997" as="targetPoint" />
          </mxGeometry>
        </mxCell>
        <mxCell id="UyIN8Gw33pNHuzx0u8Zp-305" value="GREEN: FALLING/RISING MODE INV, PERIOD = 1500, START UNIT = 500, END UNIT = 1000" style="text;html=1;strokeColor=#82b366;fillColor=#d5e8d4;align=left;verticalAlign=middle;whiteSpace=wrap;rounded=0;fontStyle=1" vertex="1" parent="1">
          <mxGeometry x="40" y="910" width="520" height="30" as="geometry" />
        </mxCell>
        <mxCell id="UyIN8Gw33pNHuzx0u8Zp-306" value="RED: RISING/FALLING MODE, PERIOD = 1000, START UNIT = 0, END UNIT = 1000" style="text;html=1;strokeColor=#b85450;fillColor=#f8cecc;align=left;verticalAlign=middle;whiteSpace=wrap;rounded=0;fontStyle=1" vertex="1" parent="1">
          <mxGeometry x="40" y="940" width="520" height="30" as="geometry" />
        </mxCell>
        <mxCell id="UyIN8Gw33pNHuzx0u8Zp-307" value="" style="endArrow=none;html=1;rounded=0;" edge="1" parent="1">
          <mxGeometry width="50" height="50" relative="1" as="geometry">
            <mxPoint x="159.97" y="1049" as="sourcePoint" />
            <mxPoint x="159.97" y="1040" as="targetPoint" />
          </mxGeometry>
        </mxCell>
        <mxCell id="UyIN8Gw33pNHuzx0u8Zp-308" value="" style="endArrow=none;html=1;rounded=0;" edge="1" parent="1">
          <mxGeometry width="50" height="50" relative="1" as="geometry">
            <mxPoint x="280" y="1049" as="sourcePoint" />
            <mxPoint x="280" y="1040" as="targetPoint" />
          </mxGeometry>
        </mxCell>
        <mxCell id="UyIN8Gw33pNHuzx0u8Zp-309" value="" style="endArrow=none;html=1;rounded=0;" edge="1" parent="1">
          <mxGeometry width="50" height="50" relative="1" as="geometry">
            <mxPoint x="399.94" y="1049.6" as="sourcePoint" />
            <mxPoint x="399.94" y="1040.6" as="targetPoint" />
          </mxGeometry>
        </mxCell>
        <mxCell id="UyIN8Gw33pNHuzx0u8Zp-310" value="" style="endArrow=none;html=1;rounded=0;" edge="1" parent="1">
          <mxGeometry width="50" height="50" relative="1" as="geometry">
            <mxPoint x="519.89" y="1049.6" as="sourcePoint" />
            <mxPoint x="519.89" y="1040.6" as="targetPoint" />
          </mxGeometry>
        </mxCell>
        <mxCell id="UyIN8Gw33pNHuzx0u8Zp-311" value="" style="endArrow=none;html=1;rounded=0;" edge="1" parent="1">
          <mxGeometry width="50" height="50" relative="1" as="geometry">
            <mxPoint x="639.89" y="1049.6" as="sourcePoint" />
            <mxPoint x="639.89" y="1040.6" as="targetPoint" />
          </mxGeometry>
        </mxCell>
        <mxCell id="UyIN8Gw33pNHuzx0u8Zp-312" value="" style="endArrow=none;html=1;rounded=0;" edge="1" parent="1">
          <mxGeometry width="50" height="50" relative="1" as="geometry">
            <mxPoint x="160" y="1130" as="sourcePoint" />
            <mxPoint x="160" y="1121" as="targetPoint" />
          </mxGeometry>
        </mxCell>
        <mxCell id="UyIN8Gw33pNHuzx0u8Zp-313" value="" style="endArrow=none;html=1;rounded=0;" edge="1" parent="1">
          <mxGeometry width="50" height="50" relative="1" as="geometry">
            <mxPoint x="280" y="1130" as="sourcePoint" />
            <mxPoint x="280" y="1121" as="targetPoint" />
          </mxGeometry>
        </mxCell>
        <mxCell id="UyIN8Gw33pNHuzx0u8Zp-314" value="" style="endArrow=none;html=1;rounded=0;" edge="1" parent="1">
          <mxGeometry width="50" height="50" relative="1" as="geometry">
            <mxPoint x="399.96000000000004" y="1130" as="sourcePoint" />
            <mxPoint x="399.96000000000004" y="1121" as="targetPoint" />
          </mxGeometry>
        </mxCell>
        <mxCell id="UyIN8Gw33pNHuzx0u8Zp-315" value="" style="endArrow=none;html=1;rounded=0;" edge="1" parent="1">
          <mxGeometry width="50" height="50" relative="1" as="geometry">
            <mxPoint x="519.92" y="1130" as="sourcePoint" />
            <mxPoint x="519.92" y="1121" as="targetPoint" />
          </mxGeometry>
        </mxCell>
        <mxCell id="UyIN8Gw33pNHuzx0u8Zp-316" value="" style="endArrow=none;html=1;rounded=0;" edge="1" parent="1">
          <mxGeometry width="50" height="50" relative="1" as="geometry">
            <mxPoint x="640" y="1130" as="sourcePoint" />
            <mxPoint x="640" y="1121" as="targetPoint" />
          </mxGeometry>
        </mxCell>
      </root>
    </mxGraphModel>
  </diagram>
</mxfile>
